<svg width="184" height="30" viewBox="0 0 184 30" fill="none" xmlns="http://www.w3.org/2000/svg">
<path d="M0.703125 14.8516C0.703125 12.8594 0.972656 11.0605 1.51172 9.45508C2.05078 7.84961 2.77148 6.51367 3.67383 5.44727C4.58789 4.38086 5.66602 3.49023 6.9082 2.77539C8.15039 2.04883 9.44531 1.5332 10.793 1.22852C12.1406 0.912109 13.5586 0.753906 15.0469 0.753906C17.0859 0.753906 18.9375 1.09961 20.6016 1.79102C22.2773 2.48242 23.6602 3.43164 24.75 4.63867C25.8516 5.83398 26.7012 7.24609 27.2988 8.875C27.8965 10.5039 28.1953 12.2617 28.1953 14.1484C28.1953 15.4023 28.0137 16.6445 27.6504 17.875C27.2871 19.1055 26.7773 20.1602 26.1211 21.0391C26.2734 21.0391 26.502 21.0332 26.8066 21.0215C27.1113 21.0098 27.3398 21.0039 27.4922 21.0039C28.4766 21.0039 28.9688 21.3672 28.9688 22.0938V28.0703C28.957 28.2578 28.8926 28.4043 28.7754 28.5098C28.6699 28.6152 28.5 28.7031 28.2656 28.7734C27.3398 28.6094 25.7227 28.5273 23.4141 28.5273C22.207 28.5273 20.5723 28.6387 18.5098 28.8613C16.459 29.084 14.9297 29.1953 13.9219 29.1953C9.1875 29.1953 5.69531 27.3672 3.44531 23.7109C2.50781 22.7734 1.81641 21.4727 1.37109 19.8086C0.925781 18.1445 0.703125 16.4922 0.703125 14.8516ZM10.8984 15.2031C10.8984 15.6953 10.8984 16.0996 10.8984 16.416C10.9102 16.7324 10.9336 17.166 10.9688 17.7168C11.0156 18.2676 11.0801 18.7305 11.1621 19.1055C11.2441 19.4805 11.3613 19.8906 11.5137 20.3359C11.6777 20.7812 11.8711 21.1387 12.0938 21.4082C12.3281 21.6777 12.6211 21.9062 12.9727 22.0938C13.3242 22.2812 13.7227 22.375 14.168 22.375V21.9531C14.168 21.9062 14.2266 21.8828 14.3438 21.8828C14.4023 21.8828 14.502 21.8945 14.6426 21.918C14.7832 21.9414 14.8828 21.9531 14.9414 21.9531C15.4219 21.9531 15.8379 21.8242 16.1895 21.5664C16.5527 21.2969 16.834 20.9277 17.0332 20.459C17.2324 19.9902 17.3965 19.5098 17.5254 19.0176C17.6543 18.5137 17.7363 17.9512 17.7715 17.3301C17.8066 16.6973 17.8242 16.1816 17.8242 15.7832C17.8359 15.373 17.8359 14.9336 17.8242 14.4648L17.7891 13.7617C17.7891 13.2344 17.7773 12.7656 17.7539 12.3555C17.7305 11.9336 17.6836 11.4648 17.6133 10.9492C17.543 10.4219 17.4258 9.9707 17.2617 9.5957C17.1094 9.20898 16.916 8.8457 16.6816 8.50586C16.459 8.16602 16.1543 7.9082 15.7676 7.73242C15.3926 7.55664 14.9648 7.46875 14.4844 7.46875C13.9922 7.46875 13.5469 7.58594 13.1484 7.82031C12.75 8.05469 12.4219 8.38281 12.1641 8.80469C11.918 9.22656 11.707 9.68945 11.5312 10.1934C11.3555 10.6855 11.2207 11.2422 11.127 11.8633C11.0449 12.4727 10.9863 13.041 10.9512 13.5684C10.916 14.084 10.8984 14.6289 10.8984 15.2031ZM30.3398 7.92578C30.293 7.69141 30.2695 7.02344 30.2695 5.92188C30.2695 4.65625 30.3867 3.90625 30.6211 3.67188H40.1836V18.4375C40.1836 19.9609 40.6289 20.7227 41.5195 20.7227C41.8945 20.7227 42.2051 20.5586 42.4512 20.2305C42.6973 19.8906 42.8203 19.4922 42.8203 19.0352V16.4336C42.8906 11.3008 42.9258 8.71094 42.9258 8.66406C42.9258 6.625 42.9023 5.14844 42.8555 4.23438C42.8555 3.90625 43.0195 3.67188 43.3477 3.53125H53.1211V6.27344C52.9688 10.7148 52.875 13.5742 52.8398 14.8516V15.9414C52.8398 16.082 52.834 16.2695 52.8223 16.5039C52.8105 16.7383 52.8047 16.9023 52.8047 16.9961C52.8047 17.3945 52.8164 17.6758 52.8398 17.8398V19.2109C52.8398 20.8398 52.6758 22.0117 52.3477 22.7266V22.7969C51.9727 23.6758 51.4336 24.4375 50.7305 25.082C50.0273 25.7148 49.2246 26.2129 48.3223 26.5762C47.4199 26.9277 46.4941 27.1855 45.5449 27.3496C44.5957 27.502 43.5938 27.5781 42.5391 27.5781C42.2109 27.5781 41.9648 27.543 41.8008 27.4727H41.3789C41.3789 27.5898 41.2031 27.6484 40.8516 27.6484V27.6836C40.5938 27.6953 39.8438 27.6367 38.6016 27.5078H37.793C37.0547 27.4258 36.3398 27.2617 35.6484 27.0156C34.9688 26.7695 34.3066 26.4238 33.6621 25.9785C33.0176 25.5215 32.4492 24.9824 31.957 24.3613C31.4766 23.7402 31.084 22.9844 30.7793 22.0938C30.4746 21.2031 30.3047 20.2305 30.2695 19.1758C30.2812 18.5664 30.2812 17.7227 30.2695 16.6445C30.2695 15.5664 30.2754 14.5879 30.2871 13.709C30.2988 12.8184 30.3281 11.957 30.375 11.125V10.6328C30.375 10.5742 30.3809 10.4805 30.3926 10.3516C30.4043 10.2227 30.4102 10.1289 30.4102 10.0703C30.4102 9.89453 30.3984 9.63086 30.375 9.2793C30.3516 8.92773 30.3398 8.66406 30.3398 8.48828V7.89062V7.92578ZM55.6172 27.332V4.23438C55.6289 4.14063 55.7227 4.05859 55.8984 3.98828C56.0742 3.90625 56.1797 3.84766 56.2148 3.8125H65.6719V26.6992C65.6133 26.9453 65.5547 27.1152 65.4961 27.209C65.4492 27.291 65.3672 27.332 65.25 27.332H55.6172ZM67.5703 26.5234V25.4336C67.5703 25.3398 67.5762 25.1699 67.5879 24.9238C67.5996 24.6777 67.6055 24.4844 67.6055 24.3438V23.4297C67.6055 21.9062 67.6641 21.0859 67.7812 20.9688C69.375 19.1289 71.7656 16.2227 74.9531 12.25L76.4473 10.5098C76.1309 10.4863 75.2754 10.4863 73.8809 10.5098C72.4863 10.5215 71.6016 10.5273 71.2266 10.5273H70.7695C70.6406 10.5273 70.4473 10.5332 70.1895 10.5449C69.9316 10.5566 69.7383 10.5625 69.6094 10.5625H68.4844C68.2031 10.4219 68.0625 10.2227 68.0625 9.96484V3.88281H87.5391C87.75 3.88281 87.8906 3.88867 87.9609 3.90039C88.0312 3.90039 88.1133 3.93555 88.207 4.00586C88.3008 4.06445 88.3594 4.16406 88.3828 4.30469C88.4062 4.44531 88.418 4.64453 88.418 4.90234C88.418 5.04297 88.4062 5.21289 88.3828 5.41211C88.3594 5.61133 88.3477 5.73437 88.3477 5.78125L88.418 5.99219C88.418 6.42578 88.4121 6.84766 88.4004 7.25781C88.4004 7.66797 88.3945 8.01367 88.3828 8.29492C88.3711 8.57617 88.3594 8.82227 88.3477 9.0332C88.3359 9.24414 88.3242 9.4082 88.3125 9.52539C88.3125 9.64258 88.3125 9.70703 88.3125 9.71875C88.2188 9.96484 88.1719 10.1055 88.1719 10.1406V10.4219C87.3047 11.418 86.0508 12.8301 84.4102 14.6582C82.7812 16.4863 81.6445 17.7695 81 18.5078L80.2266 19.4922L79.3828 20.4062H88.1719C88.5469 20.4062 88.7344 20.875 88.7344 21.8125V26.3828C88.7344 26.7344 88.6582 26.9746 88.5059 27.1035C88.3535 27.2324 88.1016 27.2969 87.75 27.2969H68.0977C68.0273 27.2266 67.9219 27.1035 67.7812 26.9277C67.6523 26.7402 67.582 26.6055 67.5703 26.5234Z" fill="#F36161"/>
<path d="M92.7188 6.94141C92.7188 6.73047 92.7305 6.41992 92.7539 6.00977C92.7773 5.58789 92.7891 5.30078 92.7891 5.14844C92.7891 5.08984 92.7773 4.87891 92.7539 4.51562C92.7305 4.15234 92.7188 3.83594 92.7188 3.56641C92.7188 2.32422 92.8359 1.70312 93.0703 1.70312C93.1641 1.70312 93.2461 1.71484 93.3164 1.73828C95.7656 1.73828 99.3926 1.70898 104.197 1.65039C109.014 1.5918 112.617 1.5625 115.008 1.5625C115.605 1.5625 115.98 1.61523 116.133 1.7207C116.297 1.82617 116.379 2.03125 116.379 2.33594V2.82812C116.379 3.4375 116.385 4.33984 116.396 5.53516C116.408 6.71875 116.414 7.62109 116.414 8.24219C116.414 8.85156 116.25 9.15625 115.922 9.15625C115.266 9.15625 114.287 9.14453 112.986 9.12109C111.686 9.09766 110.707 9.08594 110.051 9.08594V27.9297C109.969 28.2812 109.77 28.4688 109.453 28.4922C109.043 28.4922 108.445 28.4863 107.66 28.4746C106.875 28.4629 106.277 28.457 105.867 28.457C105.844 28.457 105.82 28.4688 105.797 28.4922C105.281 28.4922 104.555 28.4863 103.617 28.4746C102.691 28.4629 102 28.457 101.543 28.457H100.488C100.254 28.4805 99.9141 28.4922 99.4688 28.4922L98.7656 27.6484C98.7656 25.8672 98.8242 23.2188 98.9414 19.7031C99.0586 16.1875 99.1172 13.5391 99.1172 11.7578C99.1172 11.6758 99.1113 11.541 99.0996 11.3535C99.0996 11.166 99.0996 11.0137 99.0996 10.8965C99.0996 10.7793 99.0879 10.6328 99.0645 10.457C99.0527 10.2812 99.0234 10.1406 98.9766 10.0352C98.9414 9.91797 98.8945 9.80664 98.8359 9.70117C98.7773 9.58398 98.6953 9.50195 98.5898 9.45508C98.4961 9.39648 98.3789 9.36719 98.2383 9.36719H93.2109C92.8828 9.27344 92.7188 8.46484 92.7188 6.94141ZM117.434 27.332V4.23438C117.445 4.14063 117.539 4.05859 117.715 3.98828C117.891 3.90625 117.996 3.84766 118.031 3.8125H127.488V26.6992C127.43 26.9453 127.371 27.1152 127.312 27.209C127.266 27.291 127.184 27.332 127.066 27.332H117.434ZM143.66 3.88281C143.742 3.85938 143.871 3.8418 144.047 3.83008C144.234 3.80664 144.352 3.78906 144.398 3.77734L146.49 14.4824L149.232 3.74219H161.59C161.918 3.74219 162.082 4.43359 162.082 5.81641V26.5234C162.059 26.7109 162.006 26.8633 161.924 26.9805C161.842 27.0977 161.719 27.1797 161.555 27.2266C161.402 27.2617 161.279 27.2852 161.186 27.2969C161.104 27.2969 160.957 27.2969 160.746 27.2969C160.008 27.2969 158.883 27.3086 157.371 27.332C155.871 27.3555 154.746 27.3672 153.996 27.3672C153.41 27.0039 153.117 25.6562 153.117 23.3242C153.117 22.7383 153.129 21.9766 153.152 21.0391C153.176 20.0898 153.188 19.3867 153.188 18.9297V17.3828C153.188 17.3008 153.182 17.1719 153.17 16.9961C153.158 16.8086 153.152 16.668 153.152 16.5742C153.152 16.1758 153.176 15.5312 153.223 14.6406V15.9766C153.059 16.668 152.742 17.7227 152.273 19.1406C151.805 20.5586 151.488 21.6133 151.324 22.3047L150.27 26.8047C150.082 27.1328 149.496 27.2969 148.512 27.2969C148.031 27.2969 147.404 27.2852 146.631 27.2617C145.869 27.2383 145.289 27.2266 144.891 27.2266C144.773 27.2266 144.574 27.2324 144.293 27.2441C144.012 27.2559 143.836 27.2617 143.766 27.2617C143.391 27.2617 143.121 27.2148 142.957 27.1211C142.793 27.0273 142.676 26.8398 142.605 26.5586C141.504 21.6719 140.742 18.2148 140.32 16.1875L139.688 13.1641C139.523 16.5742 139.441 20.1836 139.441 23.9922V27.0859H131.145C131.145 27.0156 131.162 26.8633 131.197 26.6289C131.232 26.3945 131.25 26.2656 131.25 26.2422C131.156 23.9922 131.109 21.2148 131.109 17.9102C131.109 16.9141 131.104 15.5898 131.092 13.9375C131.08 12.2734 131.074 11.125 131.074 10.4922V4.26953C131.074 4.11719 131.098 4.00586 131.145 3.93555C131.191 3.85352 131.309 3.74219 131.496 3.60156H133.113C133.699 3.60156 134.121 3.58984 134.379 3.56641C135.562 3.56641 136.998 3.61914 138.686 3.72461C140.385 3.83008 141.445 3.88281 141.867 3.88281H143.66ZM153.223 14.5352V14.5V14.5352ZM165.387 5.28906C165.387 4.58594 165.416 4.17578 165.475 4.05859C165.58 3.89453 165.75 3.8125 165.984 3.8125H166.406C166.594 3.8125 166.723 3.82422 166.793 3.84766H167.707C168.891 3.84766 170.678 3.81836 173.068 3.75977C175.471 3.70117 177.27 3.67188 178.465 3.67188H183.141C183.445 3.70703 183.598 3.85938 183.598 4.12891V10C183.586 10.0703 183.562 10.1348 183.527 10.1934C183.504 10.2402 183.48 10.2754 183.457 10.2988C183.445 10.3105 183.393 10.3516 183.299 10.4219C183.205 10.4805 183.141 10.5273 183.105 10.5625H174.949V12.7422H175.723C176.402 12.7422 177.439 12.7188 178.834 12.6719C180.229 12.625 181.301 12.6016 182.051 12.6016C182.379 12.6016 182.602 12.666 182.719 12.7949C182.836 12.9238 182.895 13.1055 182.895 13.3398C182.895 13.3984 182.883 13.498 182.859 13.6387C182.836 13.7793 182.824 13.8789 182.824 13.9375V14.6055C182.824 14.6523 182.83 14.752 182.842 14.9043C182.854 15.0449 182.859 15.168 182.859 15.2734V15.7656C182.859 16.0234 182.871 16.2812 182.895 16.5391C182.918 16.7969 182.93 17.0195 182.93 17.207V17.6641C182.871 17.8047 182.824 17.8984 182.789 17.9453C182.754 17.9922 182.695 18.0156 182.613 18.0156V17.9805C182.18 17.9805 181.43 18.0098 180.363 18.0684C179.309 18.127 178.465 18.1562 177.832 18.1562H175.02V20.4062C175.113 20.4062 175.254 20.4121 175.441 20.4238C175.629 20.4355 175.77 20.4414 175.863 20.4414C176.391 20.4414 177.17 20.4238 178.201 20.3887C179.232 20.3535 179.977 20.3359 180.434 20.3359H182.684C183.293 20.3359 183.68 20.4062 183.844 20.5469C183.902 20.6172 183.949 20.6875 183.984 20.7578V26.3828C183.984 26.6289 183.938 26.8164 183.844 26.9453C183.75 27.0742 183.574 27.1445 183.316 27.1562H165.914L165.387 26.6992V5.28906Z" fill="#60BCF0"/>
</svg>
